HIERARCHY
ROOT root
{
	OFFSET 0.000000 0.000000 0.000000
	CHANNELS 6 Xposition Yposition Zposition Zrotation Yrotation Xrotation
	JOINT lhip
	{
		OFFSET 0.058581 -0.082280 -0.017664
		CHANNELS 3 Zrotation Yrotation Xrotation
		JOINT lknee
		{
			OFFSET 0.043451 -0.386469 0.008037
			CHANNELS 3 Zrotation Yrotation Xrotation
			JOINT lankle
			{
				OFFSET -0.014790 -0.426874 -0.037428
				CHANNELS 3 Zrotation Yrotation Xrotation
				JOINT ltoe
				{
					OFFSET 0.041054 -0.060286 0.122042
					CHANNELS 3 Zrotation Yrotation Xrotation
					End Site
					{
						OFFSET 0.000000 0.000000 0.000000
					}
				}
			}
		}
	}
	JOINT rhip
	{
		OFFSET -0.060310 -0.090513 -0.013543
		CHANNELS 3 Zrotation Yrotation Xrotation
		JOINT rknee
		{
			OFFSET -0.043257 -0.383688 -0.004843
			CHANNELS 3 Zrotation Yrotation Xrotation
			JOINT rankle
			{
				OFFSET 0.019056 -0.420046 -0.034562
				CHANNELS 3 Zrotation Yrotation Xrotation
				JOINT rtoe
				{
					OFFSET -0.034840 -0.062106 0.130323
					CHANNELS 3 Zrotation Yrotation Xrotation
					End Site
					{
						OFFSET 0.000000 0.000000 0.000000
					}
				}
			}
		}
	}
	JOINT lowerback
	{
		OFFSET 0.004439 0.124404 -0.038385
		CHANNELS 3 Zrotation Yrotation Xrotation
		JOINT upperback
		{
			OFFSET 0.004488 0.137956 0.026820
			CHANNELS 3 Zrotation Yrotation Xrotation
			JOINT chest
			{
				OFFSET -0.002265 0.056032 0.002855
				CHANNELS 3 Zrotation Yrotation Xrotation
				JOINT lowerneck
				{
					OFFSET -0.013390 0.211636 -0.033468
					CHANNELS 3 Zrotation Yrotation Xrotation
					JOINT upperneck
					{
						OFFSET 0.010113 0.088937 0.050410
						CHANNELS 3 Zrotation Yrotation Xrotation
						End Site
						{
							OFFSET 0.000000 0.000000 0.000000
						}
					}
				}
				JOINT lclavicle
				{
					OFFSET 0.071702 0.114000 -0.018898
					CHANNELS 3 Zrotation Yrotation Xrotation
					JOINT lshoulder
					{
						OFFSET 0.122921 0.045205 -0.019046
						CHANNELS 3 Zrotation Yrotation Xrotation
						JOINT lelbow
						{
							OFFSET 0.255332 -0.015649 -0.022946
							CHANNELS 3 Zrotation Yrotation Xrotation
							JOINT lwrist
							{
								OFFSET 0.265709 0.012698 -0.007375
								CHANNELS 3 Zrotation Yrotation Xrotation
								End Site
								{
									OFFSET 0.000000 0.000000 0.000000
								}
							}
						}
					}
				}
				JOINT rclavicle
				{
					OFFSET -0.082954 0.112472 -0.023707
					CHANNELS 3 Zrotation Yrotation Xrotation
					JOINT rshoulder
					{
						OFFSET -0.113228 0.046853 -0.008472
						CHANNELS 3 Zrotation Yrotation Xrotation
						JOINT relbow
						{
							OFFSET -0.260127 -0.014369 -0.031269
							CHANNELS 3 Zrotation Yrotation Xrotation
							JOINT rwrist
							{
								OFFSET -0.269108 0.006794 -0.006027
								CHANNELS 3 Zrotation Yrotation Xrotation
								End Site
								{
									OFFSET 0.000000 0.000000 0.000000
								}
							}
						}
					}
				}
			}
		}
	}
}
MOTION
Frames: 11
Frame Time: 0.033333
1.450069 0.477172 0.761645 -86.533781 -8.713703 -154.868557 14.161904 -8.359101 -84.839006 -2.666807 -8.440086 1.601026 3.206810 20.192215 -36.357334 0.000000 -0.000000 0.000000 -19.489105 -4.770855 -78.326379 3.811804 4.851992 0.077271 14.371020 -19.513414 -35.135202 0.000000 -0.000000 0.000000 11.485821 -3.177307 31.738842 -1.162438 0.793545 -31.192507 1.077649 3.054663 15.909493 -0.928432 5.131379 -7.374943 1.592926 -12.029500 5.858972 49.193779 6.232901 -25.411122 19.157681 -33.413633 -38.959104 26.902271 -7.433220 -27.426274 35.296867 -9.493771 -8.741319 -46.506972 -2.083951 -25.581963 -41.033136 22.084314 -56.093574 -17.225719 9.093356 -22.053123 -20.265594 14.863039 -15.906915 
1.445235 0.478756 0.761736 -86.722513 -7.617352 -156.043586 14.289795 -8.192476 -82.352771 -2.294930 -8.148126 -0.082875 3.456539 21.508699 -36.047040 0.000000 -0.000000 0.000000 -19.656593 -2.921554 -76.461191 2.408296 7.538823 -1.860652 15.371823 -21.415866 -34.904443 0.000000 -0.000000 0.000000 10.343698 -2.768464 34.813425 -1.203618 1.096515 -34.234666 1.567676 2.561525 16.877335 -1.524958 4.930093 -8.590647 2.378909 -11.621831 4.736142 46.637591 5.260062 -24.474543 22.834836 -33.331424 -38.989202 26.081071 -7.230340 -27.106489 35.737837 -8.073648 -10.669169 -44.544615 -1.224132 -24.260271 -41.822766 21.131100 -53.157880 -19.578476 10.729022 -26.176504 -21.335369 11.638425 -23.854012 
1.439837 0.478981 0.757307 -86.744044 -6.623787 -158.021375 13.304192 -8.134859 -79.075296 -1.841243 -7.816089 -1.275223 3.608451 21.672033 -35.847708 0.000000 -0.000000 0.000000 -19.048070 -1.540967 -74.148887 1.928945 8.767608 -3.100117 15.258728 -21.344653 -34.171466 0.000000 -0.000000 0.000000 9.279516 -2.473381 38.385563 -0.858762 0.767912 -35.629657 1.964544 2.649711 16.608906 -1.907808 5.582329 -11.544110 2.460812 -11.786510 4.582628 45.999485 4.104621 -23.959598 23.658941 -31.783513 -37.973621 25.119772 -8.318594 -28.091979 35.848213 -9.115620 -10.174727 -43.894087 -0.063837 -23.460072 -41.287478 19.600361 -52.664868 -21.374115 9.994266 -31.276125 -17.954289 12.363797 -25.766656 
1.430845 0.479867 0.751070 -86.948427 -5.281750 -160.660008 11.998696 -7.883485 -74.841238 -1.318444 -7.687161 -2.520251 3.677626 22.085227 -35.899106 0.000000 -0.000000 0.000000 -18.032750 -0.053130 -70.912517 1.700898 10.155307 -4.223162 15.314266 -20.241529 -33.201919 0.000000 -0.000000 0.000000 7.644800 -1.530015 42.064626 -0.885818 0.616579 -36.546360 2.726454 2.809492 15.694879 -2.359374 5.355272 -12.661060 2.952819 -11.897234 2.266784 45.612884 2.533034 -23.297925 24.488456 -31.373972 -37.269340 24.401278 -9.170545 -29.066686 36.104510 -9.169790 -10.219668 -42.128381 1.063268 -23.225147 -39.921865 18.966479 -50.568600 -22.314864 10.002487 -33.746925 -16.480765 12.975109 -26.977983 
1.424565 0.480439 0.746518 -87.135667 -4.612275 -162.227259 11.192958 -7.715964 -72.287753 -1.072551 -7.716490 -3.188649 3.556749 22.220808 -35.903886 0.000000 -0.000000 0.000000 -17.388712 0.614542 -68.973035 1.678448 10.964068 -4.530252 15.341166 -19.281142 -32.768427 0.000000 -0.000000 0.000000 6.647040 -0.681639 44.003767 -0.683457 0.335654 -37.139269 3.368843 2.777081 15.404715 -2.950594 5.474843 -13.735954 3.101724 -12.745421 0.694713 45.248916 1.542470 -23.456663 24.773685 -31.427584 -36.891849 23.734177 -9.952801 -29.911415 37.270396 -9.087148 -9.092235 -41.005722 1.553483 -23.265082 -38.571282 19.192388 -48.537404 -22.991216 11.494061 -33.610569 -19.719464 12.192187 -24.425612 
1.416348 0.480955 0.739646 -87.085083 -4.309475 -163.954796 10.352135 -7.536459 -69.315538 -0.910883 -8.024610 -3.947982 3.369532 22.214133 -35.859942 0.000000 -0.000000 0.000000 -16.430232 1.138307 -66.843331 1.711663 11.866386 -4.236983 15.150191 -17.952527 -32.578623 0.000000 -0.000000 0.000000 5.787519 0.610637 45.088494 -0.051955 -0.101585 -37.053158 4.428803 2.806295 14.807823 -4.201496 5.679253 -14.244545 3.430374 -14.095909 -1.584529 44.350863 -0.897961 -24.696875 25.232294 -32.158111 -36.953516 22.634672 -11.070259 -30.122213 39.385976 -9.353347 -6.395011 -39.808636 2.960696 -23.140805 -36.389532 19.718899 -45.557310 -23.725301 13.284442 -28.768389 -26.910504 12.532346 -15.115066 
1.409359 0.482026 0.735617 -86.413718 -5.376149 -164.990624 9.968220 -7.816515 -67.838406 -1.081610 -8.618959 -3.834782 3.223337 21.784487 -35.971221 0.000000 -0.000000 0.000000 -15.971626 1.208222 -65.475747 1.738551 12.132146 -3.418017 14.771135 -17.465950 -32.856658 0.000000 -0.000000 0.000000 6.167375 0.993953 44.287422 0.799959 -0.141317 -36.165370 5.114796 2.761234 14.123988 -5.506224 5.711507 -14.851592 2.995381 -15.041078 -2.396239 43.426279 -3.077865 -25.766647 24.643889 -33.683146 -36.983765 22.295313 -12.390826 -29.431914 39.998735 -9.620223 -4.979584 -38.713584 4.847744 -22.762644 -35.356430 20.739529 -43.492900 -23.254944 12.528817 -21.374628 -28.631054 14.490434 -7.047442 
1.401991 0.483389 0.733230 -85.771485 -6.657683 -166.199581 9.390745 -8.275261 -66.448870 -1.294834 -9.457812 -3.294371 3.081322 21.418561 -36.366041 0.000000 -0.000000 0.000000 -16.181925 1.684138 -64.153050 1.672035 12.005596 -2.335817 14.206756 -17.655124 -33.531101 0.000000 -0.000000 0.000000 6.732512 0.967838 43.476883 1.375809 -0.104044 -35.258430 5.499424 2.802027 13.060065 -6.387916 5.652954 -14.285389 2.602079 -15.025541 -2.475285 43.274864 -5.939066 -26.416766 23.418610 -34.311521 -35.535940 21.538875 -13.839999 -29.026829 41.069527 -9.339264 -4.429756 -38.429691 8.051358 -23.186669 -35.399179 22.478123 -44.228374 -21.962853 11.261092 -21.611442 -29.041706 12.962430 -8.307577 
1.394495 0.484698 0.731219 -85.542215 -7.740084 -167.632037 8.981449 -9.096463 -65.051145 -1.436425 -9.947331 -2.313875 3.162089 21.408105 -36.960738 0.000000 -0.000000 0.000000 -16.666120 2.278535 -62.517434 1.649425 11.650182 -1.416073 13.588210 -18.074724 -34.365534 0.000000 -0.000000 0.000000 7.076845 1.212215 42.433735 1.826835 -0.185560 -34.121842 5.678950 2.823789 12.498358 -6.507235 5.837531 -14.755829 2.184951 -15.313788 -1.983766 43.348030 -8.567851 -26.875197 22.101182 -35.331206 -34.417181 21.164271 -14.902345 -28.875677 42.310613 -9.442069 -3.804795 -38.164029 11.068531 -24.091517 -35.557000 24.537980 -45.909345 -22.420819 10.197373 -23.453812 -30.202723 13.082252 -7.647621 
1.385684 0.486254 0.728359 -85.619013 -8.618269 -169.868782 8.782860 -10.177270 -63.449773 -1.694629 -11.345818 -0.029667 2.978030 22.384278 -38.112366 0.000000 -0.000000 0.000000 -16.500108 3.329366 -59.467913 1.149682 12.451474 -1.362491 13.082480 -20.030475 -35.207319 0.000000 -0.000000 0.000000 7.252095 0.622055 42.244978 2.396583 -1.024187 -32.597959 5.579403 2.105934 11.864651 -7.202134 6.313335 -18.278930 1.398961 -14.055591 0.019446 42.909330 -10.704206 -26.052778 20.536189 -34.340295 -33.164009 20.533109 -17.325283 -27.670558 43.526312 -9.583284 -4.362420 -37.781635 13.238394 -25.110686 -36.335628 26.426555 -46.398615 -19.324951 9.415728 -20.454214 -31.953415 14.439300 -6.283947 
1.378449 0.488320 0.726614 -85.759315 -8.760270 -171.422698 8.873347 -10.775167 -63.074287 -1.994394 -11.943848 3.194115 2.709378 22.813251 -39.613528 0.000000 -0.000000 0.000000 -15.468133 3.843415 -57.402360 1.003048 12.574724 -1.174259 12.865973 -20.192239 -35.167994 0.000000 -0.000000 0.000000 6.871699 0.905386 41.305672 2.759970 -1.829900 -31.988105 6.155705 0.973149 11.288221 -7.185114 6.276756 -17.011752 1.491216 -11.990808 -0.492426 41.627589 -14.591788 -25.242451 19.346546 -34.522283 -32.374529 21.317047 -17.500415 -26.535537 44.274634 -10.476919 -2.043330 -37.957984 14.791204 -25.546513 -34.943395 28.571553 -44.850126 -16.205674 9.831949 -17.997285 -34.577429 14.082503 -8.572446 
